<svg width="24" height="24" viewBox="0 0 24 24" fill="none" xmlns="http://www.w3.org/2000/svg">
<path d="M21.5452 9.73221H20.7766V9.69231H12.1894V13.5385H17.5817C16.795 15.7774 14.6811 17.3846 12.1894 17.3846C9.0278 17.3846 6.4645 14.8014 6.4645 11.6154C6.4645 8.42933 9.0278 5.84615 12.1894 5.84615C13.6487 5.84615 14.9764 6.40096 15.9873 7.30721L18.6861 4.5875C16.982 2.98702 14.7026 2 12.1894 2C6.9201 2 2.64793 6.30529 2.64793 11.6154C2.64793 16.9255 6.9201 21.2308 12.1894 21.2308C17.4586 21.2308 21.7308 16.9255 21.7308 11.6154C21.7308 10.9707 21.6649 10.3413 21.5452 9.73221Z" fill="#FFC107"/>
<path d="M3.74802 7.1399L6.88285 9.45673C7.73108 7.34038 9.78535 5.84615 12.1893 5.84615C13.6487 5.84615 14.9764 6.40096 15.9873 7.30721L18.6861 4.5875C16.982 2.98702 14.7025 2 12.1893 2C8.52445 2 5.3462 4.0851 3.74802 7.1399Z" fill="#FF3D00"/>
<path d="M12.1894 21.2308C14.6539 21.2308 16.8933 20.2803 18.5864 18.7346L15.6334 16.2164C14.6432 16.9752 13.4333 17.3856 12.1894 17.3846C9.70765 17.3846 7.60043 15.7899 6.80659 13.5645L3.69513 15.9803C5.27423 19.0943 8.48111 21.2308 12.1894 21.2308Z" fill="#4CAF50"/>
<path d="M21.5452 9.73223H20.7766V9.69232H12.1894V13.5385H17.5817C17.2054 14.6041 16.5275 15.5352 15.6319 16.2168L15.6333 16.2159L18.5864 18.7341C18.3775 18.9255 21.7308 16.4231 21.7308 11.6154C21.7308 10.9707 21.6649 10.3414 21.5452 9.73223Z" fill="#1976D2"/>
</svg>
