<svg xmlns="http://www.w3.org/2000/svg" viewBox="0 0 155.82 108.57"><defs><style>.cls-1,.cls-2{fill:#291e52;}.cls-2{font-size:50.26px;font-family:Poppins-Light, Poppins;font-weight:300;}.cls-3{fill:#7e57ff;}.cls-4{fill:#f9626f;}.cls-5{fill:#fadc30;}</style></defs><g id="Calque_2" data-name="Calque 2"><g id="Calque_1-2" data-name="Calque 1"><path class="cls-1" d="M70.91,78.62a11.72,11.72,0,0,1-2.8,1.45,12.37,12.37,0,0,1-4.56.77,11.82,11.82,0,0,1-5.13-1.06,10.78,10.78,0,0,1-3.78-2.93,12.8,12.8,0,0,1-2.35-4.49,19.57,19.57,0,0,1-.8-5.72,17.39,17.39,0,0,1,1-6,12.8,12.8,0,0,1,2.67-4.49,11.6,11.6,0,0,1,4.13-2.82,13.79,13.79,0,0,1,5.33-1,33.14,33.14,0,0,1,5.87.47,28,28,0,0,1,3.81,1V90l-3.45,1.3Zm0-22.39a15.37,15.37,0,0,0-2.29-.5,26.54,26.54,0,0,0-4-.24,9,9,0,0,0-7,2.88c-1.75,1.92-2.62,4.67-2.62,8.27a19.22,19.22,0,0,0,.46,4.3A10.21,10.21,0,0,0,57,74.48a7.21,7.21,0,0,0,2.7,2.37,8.92,8.92,0,0,0,4.15.87,10.37,10.37,0,0,0,2.26-.23,12.78,12.78,0,0,0,2-.61,11.14,11.14,0,0,0,1.62-.79,11.45,11.45,0,0,0,1.16-.79Z"/><path class="cls-1" d="M15.05,76.09a15,15,0,0,1-2.12,1,10.31,10.31,0,0,1-3.57.51A9.79,9.79,0,0,1,7,77.28,3.71,3.71,0,0,1,5.13,76.2,5.46,5.46,0,0,1,4,73.9,15.24,15.24,0,0,1,3.56,70V55.13H14.72v-3H3.56q0-7.14,0-14.29L0,38.46Q0,54.09,0,69.7a23.75,23.75,0,0,0,.44,4.87A8.2,8.2,0,0,0,2,78a6.28,6.28,0,0,0,2.81,2.06,12.28,12.28,0,0,0,4.36.68,13.32,13.32,0,0,0,4.12-.62A13.19,13.19,0,0,0,15.91,79Z"/><path class="cls-1" d="M153,76.24c-1.11-1.44-2.31-2.85-3.57-4.22s-2.54-2.65-3.84-3.83a40.1,40.1,0,0,0-3.87-3.12q1.6-1.5,3.3-3.17l3.44-3.39c2.38-2.34,2.61-2.48,3.35-3.3a32.9,32.9,0,0,0,2.93-3.74h-4.08a34.79,34.79,0,0,1-2.9,3.63c-.56.61-.7.76-3.31,3.28-1.16,1.13-2.31,2.25-3.43,3.36s-2.07,2-2.82,2.64V38.29l-3.52.65V80.32h3.52V66.72A21.14,21.14,0,0,1,141.43,69q1.84,1.5,3.68,3.31a50,50,0,0,1,3.53,3.86,35.11,35.11,0,0,1,3,4.19h4.23A49.49,49.49,0,0,0,153,76.24Z"/><text/><text class="cls-2" transform="translate(15.32 80.22)">a</text><text class="cls-2" transform="translate(97.68 80.22)">a</text><circle class="cls-3" cx="88.34" cy="61.73" r="5.96"/><circle class="cls-4" cx="88.08" cy="49.16" r="5.96"/><circle class="cls-5" cx="88.08" cy="74.26" r="5.96"/><path class="cls-3" d="M105.23,45.13v.24c-8.81-3.73-19.36-5.53-30.66-1.45-1.06.38-2.1.81-3.12,1.27,0-.12.71-3.48.73-3.6.22-1.1.45-2.2.73-3.59h30.87C104.35,40.79,104.66,42.34,105.23,45.13Z"/><text/><text/><text/></g></g></svg>