<svg width="27" height="23" viewBox="0 0 27 23" fill="none" xmlns="http://www.w3.org/2000/svg">
<path d="M26.7811 3.2935C25.798 3.73305 24.7417 4.03012 23.633 4.16377C24.7647 3.47976 25.6337 2.39661 26.0429 1.10604C24.967 1.74983 23.7899 2.20343 22.5625 2.44722C21.5626 1.37312 20.1382 0.701843 18.5616 0.701843C15.5346 0.701843 13.0804 3.17648 13.0804 6.22863C13.0804 6.66187 13.1289 7.08364 13.2223 7.48826C8.66701 7.25769 4.62831 5.0574 1.92488 1.71354C1.45318 2.52983 1.18289 3.47934 1.18289 4.49209C1.18289 6.40963 2.15061 8.10124 3.62124 9.09242C2.75083 9.06493 1.89957 8.82787 1.13853 8.40104C1.13822 8.42419 1.13822 8.44734 1.13822 8.4706C1.13822 11.1484 3.02754 13.3823 5.53488 13.8901C4.72775 14.1114 3.88113 14.1438 3.05968 13.9848C3.75712 16.1805 5.78137 17.7784 8.17976 17.8231C6.3039 19.3054 3.94048 20.189 1.37261 20.189C0.930128 20.189 0.493906 20.1628 0.065094 20.1118C2.49072 21.68 5.37176 22.5949 8.46706 22.5949C18.5489 22.5949 24.0619 14.1731 24.0619 6.8696C24.0619 6.62988 24.0567 6.39153 24.046 6.15455C25.1191 5.37234 26.0452 4.4035 26.7811 3.2935Z" fill="#55ACEE"/>
</svg>
